<?xml version="1.0" standalone="no"?>
<!DOCTYPE svg PUBLIC "-//W3C//DTD SVG 20010904//EN"
 "http://www.w3.org/TR/2001/REC-SVG-20010904/DTD/svg10.dtd">
<svg version="1.0" xmlns="http://www.w3.org/2000/svg"
 width="1039.000000pt" height="1039.000000pt" viewBox="0 0 1039.000000 1039.000000"
 preserveAspectRatio="xMidYMid meet">
<metadata>
Created by potrace 1.11, written by Peter Selinger 2001-2013
</metadata>
<g transform="translate(0.000000,1039.000000) scale(0.100000,-0.100000)"
fill="#000000" stroke="none">
<path d="M5195 10226 c-17 -7 -107 -57 -200 -111 -160 -93 -336 -195 -900
-520 -132 -76 -294 -170 -360 -208 -66 -38 -208 -120 -315 -182 -107 -62 -267
-154 -355 -205 -88 -51 -263 -152 -390 -225 -126 -73 -286 -165 -355 -205 -69
-39 -231 -133 -360 -207 -129 -75 -287 -166 -350 -203 -63 -37 -196 -113 -295
-170 -404 -232 -416 -239 -431 -276 -12 -28 -14 -401 -14 -2514 0 -2192 2
-2484 15 -2510 16 -31 34 -42 490 -305 132 -76 335 -193 450 -260 116 -67 291
-168 390 -225 99 -57 232 -133 295 -170 63 -37 192 -111 285 -165 262 -151
349 -202 490 -283 72 -41 202 -117 290 -167 88 -51 214 -123 280 -162 66 -38
212 -122 325 -187 113 -66 338 -195 500 -289 498 -288 533 -307 565 -307 28 0
95 36 485 262 52 30 187 108 300 173 113 65 257 148 320 185 63 37 196 113
295 170 99 57 275 158 390 225 602 348 906 524 1255 725 212 122 489 282 615
355 127 73 309 178 405 233 240 138 261 152 287 191 l23 34 0 2479 c0 2734 5
2510 -62 2561 -18 14 -91 58 -163 99 -71 41 -222 128 -335 193 -113 65 -315
182 -450 260 -397 229 -644 372 -820 473 -91 53 -235 136 -320 185 -149 86
-460 266 -775 447 -82 48 -226 131 -320 185 -184 107 -536 310 -870 502 -115
67 -226 124 -245 127 -20 3 -48 0 -65 -8z"/>
</g>
</svg>
